<svg xmlns="http://www.w3.org/2000/svg"
     viewBox="0 0 160 160"
     preserveAspectRatio="xMidYMid meet"
     style="width: 100%; height: 100%; max-width: 100vw; max-height: 100vh; display: block;">
  <defs>
    <linearGradient id="iconBg1" x1="0%" y1="0%" x2="100%" y2="100%">
      <stop offset="0%" stop-color="#2D2A55" />
      <stop offset="100%" stop-color="#A084DC" />
    </linearGradient>
  </defs>

  <!-- Centered Calculator Icon -->
  <g>
    <circle cx="80" cy="80" r="70" fill="url(#iconBg1)" stroke="#7DE2D1" stroke-width="3" />
    <rect x="50" y="40" width="60" height="90" rx="5" fill="#2D2A55" />
    <rect x="55" y="45" width="50" height="20" rx="2" fill="#F1F1F1" />
    <g fill="#FF5DA2">
      <rect x="55" y="70" width="10" height="10" rx="2" />
      <rect x="75" y="70" width="10" height="10" rx="2" />
      <rect x="95" y="70" width="10" height="10" rx="2" />
      <rect x="55" y="90" width="10" height="10" rx="2" />
      <rect x="75" y="90" width="10" height="10" rx="2" />
      <rect x="95" y="90" width="10" height="10" rx="2" />
      <rect x="55" y="110" width="10" height="10" rx="2" />
      <rect x="75" y="110" width="10" height="10" rx="2" />
      <rect x="95" y="110" width="10" height="10" rx="2" />
    </g>
  </g>
</svg>