<?xml version="1.0" encoding="UTF-8" standalone="no"?>
<svg viewBox="-50 -50 100 100" xmlns="http://www.w3.org/2000/svg" preserveAspectRatio="xMidYMid meet" width="100%" height="100%">
    <g>
        <!-- Outer flame -->
        <circle cx="0" cy="0" r="40" fill="#ff6b00" />
        <!-- Inner flame -->
        <circle cx="0" cy="0" r="30" fill="#ff9500" />
        <!-- Core -->
        <circle cx="0" cy="0" r="20" fill="#ffde59" />
        <!-- Flame details -->
        <path d="M-20,-35 C-10,-25 -20,-15 -10,-5 C0,-15 5,-20 0,-35 C10,-20 20,-25 10,-5 C25,-15 25,-25 15,-35" fill="#ff3d00" />
        <path d="M-20,35 C-10,25 -20,15 -10,5 C0,15 5,20 0,35 C10,20 20,25 10,5 C25,15 25,25 15,35" fill="#ff3d00" />
        <path d="M35,-20 C25,-10 35,0 25,10 C15,0 15,-5 30,0 C20,-15 25,-20 35,-5" fill="#ff3d00" />
        <path d="M-35,-20 C-25,-10 -35,0 -25,10 C-15,0 -15,-5 -30,0 C-20,-15 -25,-20 -35,-5" fill="#ff3d00" />
    </g>
</svg>