<?xml version="1.0" encoding="UTF-8" standalone="no"?>
<svg viewBox="0 0 600 600" xmlns="http://www.w3.org/2000/svg" preserveAspectRatio="xMidYMid meet" width="100%" height="100%">
  <!-- Definitions for various patterns and gradients -->
  <defs>
    <!-- Parchment texture pattern -->
    <pattern id="parchmentTexture" patternUnits="userSpaceOnUse" width="100" height="100">
      <rect width="100" height="100" fill="#f8f5e6" />
      <path d="M0,0 L100,100 M100,0 L0,100" stroke="#d2c6a4" stroke-width="0.5" opacity="0.2" />
      <path d="M25,0 L25,100 M50,0 L50,100 M75,0 L75,100 M0,25 L100,25 M0,50 L100,50 M0,75 L100,75" stroke="#d2c6a4" stroke-width="0.3" opacity="0.1" />
    </pattern>
    
    <!-- Wood texture for rollers -->
    <linearGradient id="woodGradient" x1="0%" y1="0%" x2="100%" y2="0%">
      <stop offset="0%" style="stop-color:#8B4513" />
      <stop offset="20%" style="stop-color:#A0522D" />
      <stop offset="40%" style="stop-color:#8B4513" />
      <stop offset="60%" style="stop-color:#A0522D" />
      <stop offset="80%" style="stop-color:#8B4513" />
      <stop offset="100%" style="stop-color:#A0522D" />
    </linearGradient>
    
    <!-- Shadow gradient -->
    <radialGradient id="shadowGradient" cx="50%" cy="50%" r="50%" fx="50%" fy="50%">
      <stop offset="0%" style="stop-color:rgba(0,0,0,0.4)" />
      <stop offset="100%" style="stop-color:rgba(0,0,0,0)" />
    </radialGradient>
    
    <!-- Highlight gradient for parchment -->
    <linearGradient id="highlightGradient" x1="0%" y1="0%" x2="100%" y2="0%">
      <stop offset="0%" style="stop-color:rgba(255,255,255,0.1)" />
      <stop offset="50%" style="stop-color:rgba(255,255,255,0.3)" />
      <stop offset="100%" style="stop-color:rgba(255,255,255,0.1)" />
    </linearGradient>
    
    <!-- New gradient for wooden rollers -->
    <linearGradient id="rollerGradient" x1="0%" y1="0%" x2="0%" y2="100%">
      <stop offset="0%" style="stop-color:#654321" />
      <stop offset="25%" style="stop-color:#8B4513" />
      <stop offset="50%" style="stop-color:#A0522D" />
      <stop offset="75%" style="stop-color:#8B4513" />
      <stop offset="100%" style="stop-color:#654321" />
    </linearGradient>
    
    <!-- End caps gradient -->
    <radialGradient id="endCapGradient" cx="50%" cy="50%" r="50%" fx="50%" fy="50%">
      <stop offset="0%" style="stop-color:#8B4513" />
      <stop offset="70%" style="stop-color:#654321" />
      <stop offset="100%" style="stop-color:#5D4037" />
    </radialGradient>
  </defs>
  
  <!-- Parchment texture overlay -->
  <rect width="600" height="600" fill="url(#parchmentTexture)" opacity="0.1" />
  
  <!-- Shadow beneath scroll -->
  <ellipse cx="300" cy="550" rx="250" ry="20" fill="url(#shadowGradient)" opacity="0.3" />
  
  <!-- Main scroll components - Redesigned with more stylized roller approach -->
  
  <!-- Top roller wooden part -->
  <rect x="60" y="30" width="480" height="25" rx="12.5" fill="url(#rollerGradient)" stroke="#5D4037" stroke-width="1" />
  
  <!-- Top roller end caps -->
  <circle cx="60" cy="42.5" r="15" fill="url(#endCapGradient)" stroke="#5D4037" stroke-width="1" />
  <circle cx="540" cy="42.5" r="15" fill="url(#endCapGradient)" stroke="#5D4037" stroke-width="1" />
  
  <!-- Decorative elements on top roller -->
  <rect x="120" y="30" width="5" height="25" fill="#5D4037" opacity="0.7" />
  <rect x="240" y="30" width="5" height="25" fill="#5D4037" opacity="0.7" />
  <rect x="360" y="30" width="5" height="25" fill="#5D4037" opacity="0.7" />
  <rect x="480" y="30" width="5" height="25" fill="#5D4037" opacity="0.7" />
  
  <!-- Curl from the roller -->
  <path d="M60,55 C160,75 440,75 540,55 L540,60 C440,80 160,80 60,60 Z" fill="#e8dfca" stroke="#cfc3a5" stroke-width="0.5" />
  <path d="M60,60 C160,80 440,80 540,60 L540,65 C440,85 160,85 60,65 Z" fill="#f0e9d9" stroke="#cfc3a5" stroke-width="0.5" />
  
  <!-- Main scroll parchment - now with curled edges -->
  <path d="M60,65 
           C55,65 50,67 50,72 
           V528 
           C50,533 55,535 60,535 
           L540,535 
           C545,535 550,533 550,528 
           V72 
           C550,67 545,65 540,65 
           Z" 
        fill="#f2ebd5" stroke="#d8ccb0" stroke-width="1" />
  
  <!-- Parchment edge details - more pronounced for character -->
  <path d="M60,65 L540,65" stroke="#d8ccb0" stroke-width="2" />
  <path d="M60,535 L540,535" stroke="#d8ccb0" stroke-width="2" />
  
  <!-- Parchment highlight -->
  <rect x="65" y="70" width="470" height="460" fill="url(#highlightGradient)" opacity="0.3" />
  
  <!-- Bottom curl from the parchment -->
  <path d="M60,535 C160,515 440,515 540,535 L540,540 C440,520 160,520 60,540 Z" fill="#e8dfca" stroke="#cfc3a5" stroke-width="0.5" />
  <path d="M60,540 C160,520 440,520 540,540 L540,545 C440,525 160,525 60,545 Z" fill="#f0e9d9" stroke="#cfc3a5" stroke-width="0.5" />
  
  <!-- Bottom roller wooden part -->
  <rect x="60" y="545" width="480" height="25" rx="12.5" fill="url(#rollerGradient)" stroke="#5D4037" stroke-width="1" />
  
  <!-- Bottom roller end caps -->
  <circle cx="60" cy="557.5" r="15" fill="url(#endCapGradient)" stroke="#5D4037" stroke-width="1" />
  <circle cx="540" cy="557.5" r="15" fill="url(#endCapGradient)" stroke="#5D4037" stroke-width="1" />
  
  <!-- Decorative elements on bottom roller -->
  <rect x="120" y="545" width="5" height="25" fill="#5D4037" opacity="0.7" />
  <rect x="240" y="545" width="5" height="25" fill="#5D4037" opacity="0.7" />
  <rect x="360" y="545" width="5" height="25" fill="#5D4037" opacity="0.7" />
  <rect x="480" y="545" width="5" height="25" fill="#5D4037" opacity="0.7" />
  
  <!-- Parchment wear and tear details - more irregular for aged look -->
  <path d="M60,120 C68,122 75,119 80,122 C88,124 95,118 100,120" stroke="#d8ccb0" stroke-width="0.5" fill="none" />
  <path d="M500,130 C510,132 520,128 530,130 C535,132 538,128 540,130" stroke="#d8ccb0" stroke-width="0.5" fill="none" />
  <path d="M60,350 C70,352 75,348 82,351 C90,353 95,348 100,350" stroke="#d8ccb0" stroke-width="0.5" fill="none" />
  <path d="M500,370 C510,372 520,368 530,370 C535,372 538,368 540,370" stroke="#d8ccb0" stroke-width="0.5" fill="none" />
  
  <!-- Small tears on edges -->
  <path d="M60,200 L63,203 L60,206" stroke="#d8ccb0" stroke-width="0.5" fill="none" />
  <path d="M540,250 L537,253 L540,256" stroke="#d8ccb0" stroke-width="0.5" fill="none" />
  <path d="M60,450 L63,453 L60,456" stroke="#d8ccb0" stroke-width="0.5" fill="none" />
  <path d="M540,400 L537,403 L540,406" stroke="#d8ccb0" stroke-width="0.5" fill="none" />
  
  <!-- Decorative header -->
  <path d="M100,95 L500,95" stroke="#5D4037" stroke-width="2" />
  <path d="M150,85 L450,85" stroke="#6d4c41" stroke-width="3" />
  
  <!-- Additional scroll details -->
  <path d="M100,100 C120,102 130,99 150,100 M450,100 C470,102 480,99 500,100" stroke="#d8ccb0" stroke-width="0.7" fill="none" />
  <path d="M100,500 C120,498 130,501 150,500 M450,500 C470,498 480,501 500,500" stroke="#d8ccb0" stroke-width="0.7" fill="none" />
</svg>